<?xml version="1.0" encoding="UTF-8"?>
<svg width="163px" height="274px" viewBox="0 0 163 274" version="1.1" xmlns="http://www.w3.org/2000/svg" xmlns:xlink="http://www.w3.org/1999/xlink">
    <!-- Generator: Sketch 50.2 (55047) - http://www.bohemiancoding.com/sketch -->
    <title>植物-双紫叶</title>
    <desc>Created with Sketch.</desc>
    <defs></defs>
    <g id="植物" stroke="none" stroke-width="1" fill="none" fill-rule="evenodd">
        <g id="Artboard" transform="translate(-344.000000, -421.000000)">
            <g id="植物-双紫叶" transform="translate(344.000000, 408.000000)">
                <path d="M152.887728,5.50521611 C143.714843,30.6635897 132.089609,44.7389181 118.012024,47.731201 C96.8956474,52.2196255 84.45804,91.0755286 95.2353838,105.079435 C99.9862212,111.252596 134.655606,106.805735 149.293978,80.0872474 C154.293889,70.9612272 155.491806,46.1005501 152.887728,5.50521611 Z" id="Path-8" fill="#8088DD" transform="translate(122.751620, 56.521109) rotate(12.000000) translate(-122.751620, -56.521109) "></path>
                <path d="M34.2448217,136.049038 C30.907958,146.081013 26.4648153,151.097001 20.9153936,151.097001 C12.5912611,151.097001 7.38067565,166.811608 11.778616,172.129705 C15.2667891,176.347689 27.4042901,172.813988 33.2067541,162.22312 C35.1886553,158.605682 35.5346778,149.880988 34.2448217,136.049038 Z" id="Path-8-Copy" fill="#8088DD" transform="translate(22.593933, 154.957183) rotate(240.000000) translate(-22.593933, -154.957183) "></path>
                <path d="M121.5,76.5 C98.7908555,88.5691126 85.3325221,99.7461959 81.125,110.03125 C78.3925725,116.710517 64.0447096,133.542964 58.5,165.417969 C56.5044675,176.889734 56.5044675,198.583744 58.5,230.5" id="Line-10" stroke="#372D91" stroke-width="3" stroke-linecap="square"></path>
                <path d="M56.5,188.5 C57.1044097,176.759095 54.9846836,168.220414 50.1408217,162.883956 C45.2969598,157.547498 37.5833526,154.586179 27,154" id="Line-11" stroke="#372D91" stroke-width="3" stroke-linecap="square"></path>
                <path d="M105.5,89.5 C108.200131,87.5 110.972918,86.5 113.818359,86.5 C116.663801,86.5 119.557681,87.5 122.5,89.5" id="Line-12" stroke="#3D3396" stroke-width="3" stroke-linecap="square" transform="translate(114.000000, 88.000000) rotate(15.000000) translate(-114.000000, -88.000000) "></path>
                <path d="M110.5,68.5 C112.348919,70.6690522 113.394861,72.4217371 113.637828,73.7580547 C113.880795,75.0943723 113.501519,77.008354 112.5,79.5" id="Line-13" stroke="#3D3396" stroke-width="3" stroke-linecap="square"></path>
                <path d="M29.5,147.5 C30.6550426,147.810085 31.4604463,148.420893 31.9162109,149.332422 C32.3719756,150.243951 32.566572,151.633144 32.5,153.5" id="Line-14" stroke="#3D3396" stroke-width="3" stroke-linecap="square"></path>
                <polygon id="Rectangle-8" fill="#FC5E64" points="21 216 102 216 91.359375 287 28.5078125 287"></polygon>
                <polygon id="Rectangle-8" fill="#EB565B" points="21 216 102 216 95.5458276 259.065726 23.0090027 234.998768"></polygon>
            </g>
        </g>
    </g>
</svg>